<svg width="48" height="49" viewBox="0 0 48 49" fill="none" xmlns="http://www.w3.org/2000/svg">
<g clip-path="url(#clip0_1_378)">
<path d="M24.0001 0.230103C28.7112 0.230103 33.3166 1.62712 37.2338 4.2445C41.1509 6.86187 44.204 10.582 46.0069 14.9345C47.8097 19.2871 48.2815 24.0765 47.3624 28.6971C46.4433 33.3177 44.1746 37.562 40.8433 40.8933C37.5121 44.2246 33.2678 46.4933 28.6471 47.4124C24.0265 48.3316 19.2371 47.8597 14.8846 46.0569C10.532 44.2541 6.81186 41.201 4.19446 37.2837C1.57706 33.3666 0.180061 28.7612 0.180061 24.0501C0.186363 17.7345 2.69806 11.6795 7.16376 7.21384C11.6296 2.7481 17.6846 0.236456 24.0001 0.230103ZM24.0001 44.8701C28.1179 44.8701 32.1432 43.649 35.5671 41.3613C38.9909 39.0735 41.6594 35.8219 43.2352 32.0175C44.811 28.2132 45.2234 24.027 44.42 19.9883C43.6167 15.9496 41.6338 12.2398 38.722 9.32814C35.8103 6.41641 32.1006 4.4335 28.0619 3.63015C24.0232 2.82681 19.837 3.23912 16.0326 4.81493C12.2283 6.39075 8.97656 9.0593 6.68886 12.4831C4.40116 15.9069 3.18006 19.9322 3.18006 24.0501C3.18636 29.5699 5.38196 34.8619 9.28506 38.765C13.1883 42.6681 18.4802 44.8637 24.0001 44.8701Z" fill="black"/>
<path d="M14.124 14.9782C15.876 15.2542 17.628 15.4462 19.392 15.5782C18.7081 14.6406 18.3384 13.5107 18.336 12.3502C18.3011 11.598 18.419 10.8466 18.6828 10.1413C18.9466 9.43603 19.3506 8.7916 19.8705 8.24696C20.3904 7.70233 21.0154 7.2688 21.7077 6.9726C22.3999 6.6764 23.1451 6.52368 23.898 6.52368C24.651 6.52368 25.3961 6.6764 26.0884 6.9726C26.7806 7.2688 27.4056 7.70233 27.9255 8.24696C28.4454 8.7916 28.8495 9.43603 29.1133 10.1413C29.377 10.8466 29.495 11.598 29.46 12.3502C29.4577 13.5107 29.088 14.6406 28.404 15.5782C30.168 15.4462 31.932 15.2542 33.684 14.9782C34.405 14.838 35.1516 14.9218 35.8236 15.2182C36.4956 15.5146 37.0609 16.0095 37.4436 16.6364C37.8263 17.2633 38.008 17.9922 37.9645 18.7254C37.921 19.4586 37.6542 20.1609 37.2 20.7381C36.9186 21.1307 36.5612 21.4626 36.1488 21.7141C35.7365 21.9656 35.2778 22.1316 34.8 22.2021C32.796 22.5261 30.72 22.7542 28.608 22.8982V24.7582L34.8 34.4902C35.06 34.8959 35.2376 35.349 35.3225 35.8234C35.4075 36.2978 35.3981 36.7842 35.2951 37.255C35.0869 38.2058 34.5095 39.035 33.69 39.5601C32.8705 40.0853 31.8759 40.2633 30.9251 40.0552C30.4543 39.9521 30.0085 39.7573 29.613 39.4819C29.2174 39.2065 28.88 38.8559 28.62 38.4501L24 31.1061L19.356 38.4501C19.0982 38.8591 18.7619 39.2129 18.3666 39.4912C17.9712 39.7695 17.5247 39.9666 17.0527 40.0714C16.5807 40.1761 16.0927 40.1862 15.6168 40.1013C15.1408 40.0163 14.6865 39.8379 14.2799 39.5764C13.8733 39.3148 13.5225 38.9753 13.2479 38.5775C12.9733 38.1796 12.7802 37.7313 12.6798 37.2584C12.5793 36.7854 12.5736 36.2973 12.6629 35.8222C12.7522 35.3471 12.9348 34.8943 13.2 34.4902L19.2 25.0461V22.8502C17.088 22.7062 15.012 22.4782 13.008 22.1542C12.0532 21.995 11.2008 21.4631 10.6382 20.6755C10.0756 19.8878 9.84889 18.9089 10.008 17.9542C10.1672 16.9994 10.6991 16.1469 11.4867 15.5843C12.2744 15.0217 13.2532 14.795 14.208 14.9542L14.124 14.9782ZM23.904 9.7821C23.3933 9.76778 22.8899 9.90612 22.4582 10.1795C22.0266 10.4528 21.6862 10.8487 21.4808 11.3165C21.2753 11.7843 21.2141 12.3028 21.3049 12.8055C21.3957 13.3083 21.6344 13.7726 21.9905 14.139C22.3467 14.5054 22.804 14.7572 23.304 14.8623C23.804 14.9673 24.324 14.9208 24.7974 14.7288C25.2709 14.5367 25.6762 14.2078 25.9617 13.7841C26.2472 13.3603 26.3998 12.8611 26.4 12.3502C26.4003 11.6814 26.1396 11.0389 25.6735 10.5593C25.2074 10.0797 24.5725 9.80085 23.904 9.7821ZM13.44 19.2502C15.8569 19.6293 18.2924 19.8777 20.736 19.9942C21.1212 20.0127 21.4845 20.1788 21.7504 20.4582C22.0164 20.7375 22.1645 21.1085 22.164 21.4942V25.4902C22.1621 25.7754 22.0789 26.0544 21.924 26.2942L15.708 36.0501C15.6614 36.1234 15.6297 36.2051 15.6148 36.2906C15.5998 36.3761 15.6019 36.4638 15.6208 36.5485C15.6398 36.6332 15.6752 36.7133 15.7252 36.7843C15.7752 36.8553 15.8387 36.9157 15.912 36.9621C16.0608 37.0531 16.2391 37.0827 16.4093 37.0446C16.5795 37.0066 16.7282 36.9038 16.824 36.7581L22.728 27.4461C22.8565 27.2414 23.0329 27.071 23.242 26.9498C23.451 26.8285 23.6865 26.76 23.928 26.7501C24.1814 26.7503 24.4306 26.8141 24.6529 26.9356C24.8752 27.0572 25.0633 27.2329 25.2 27.4461L31.2 36.8061C31.241 36.8896 31.2992 36.9634 31.3707 37.0228C31.4423 37.0822 31.5256 37.1258 31.6151 37.1508C31.7047 37.1758 31.7985 37.1815 31.8904 37.1677C31.9824 37.1539 32.0704 37.1208 32.1486 37.0706C32.2269 37.0204 32.2937 36.9542 32.3446 36.8765C32.3955 36.7987 32.4294 36.711 32.4441 36.6192C32.4588 36.5274 32.4539 36.4335 32.4297 36.3437C32.4056 36.2539 32.3628 36.1702 32.304 36.0982L25.908 26.0061C25.7513 25.7673 25.6679 25.4878 25.668 25.2021V21.4822C25.6676 21.0965 25.8157 20.7255 26.0816 20.4462C26.3475 20.1668 26.7108 20.0007 27.096 19.9822C29.5274 19.869 31.951 19.6246 34.356 19.2502C34.4423 19.2381 34.5251 19.2084 34.5994 19.163C34.6737 19.1176 34.7379 19.0574 34.788 18.9862C34.8684 18.8819 34.9151 18.7557 34.922 18.6243C34.9289 18.4929 34.8956 18.3625 34.8266 18.2504C34.7575 18.1384 34.656 18.05 34.5355 17.9971C34.415 17.9442 34.2812 17.9292 34.152 17.9542C27.3627 19.0342 20.4453 19.0342 13.656 17.9542C13.4833 17.9292 13.3075 17.9712 13.1648 18.0716C13.022 18.172 12.923 18.3231 12.888 18.4942C12.8637 18.6672 12.9077 18.8429 13.0107 18.9841C13.1138 19.1252 13.2678 19.2206 13.44 19.2502Z" fill="black"/>
</g>
<defs>
<clipPath id="clip0_1_378">
<rect width="48" height="48" fill="white" transform="matrix(-1 0 0 1 48 0.0500488)"/>
</clipPath>
</defs>
</svg>
