<svg width="43" height="47" viewBox="0 0 43 47" fill="none" xmlns="http://www.w3.org/2000/svg">
<path d="M36.3997 3.596H23.1157L24.2557 2.396C24.5104 2.10951 24.6457 1.73639 24.634 1.35326C24.6222 0.970115 24.4642 0.606035 24.1923 0.335754C23.9205 0.0654739 23.5555 -0.0904886 23.1724 -0.100113C22.7892 -0.109737 22.4169 0.0277084 22.1317 0.284001L18.5317 3.884C18.3921 4.02333 18.2812 4.18886 18.2056 4.37109C18.13 4.55333 18.091 4.7487 18.091 4.946C18.091 5.14331 18.13 5.33867 18.2056 5.52091C18.2812 5.70314 18.3921 5.86866 18.5317 6.008L22.1317 9.608C22.2715 9.74901 22.4379 9.86086 22.6213 9.93709C22.8046 10.0133 23.0013 10.0524 23.1997 10.052C23.3967 10.0535 23.5918 10.0149 23.7735 9.93854C23.955 9.86222 24.1191 9.74975 24.2557 9.608C24.3951 9.46968 24.5056 9.30518 24.5811 9.12393C24.6565 8.94271 24.6954 8.74832 24.6954 8.552C24.6954 8.35568 24.6565 8.16131 24.5811 7.98007C24.5056 7.79884 24.3951 7.63432 24.2557 7.496L23.3077 6.548H36.3997C36.9558 6.55115 37.4881 6.77342 37.8813 7.16655C38.2744 7.5597 38.4966 8.09202 38.4997 8.648V37.4C38.4966 37.9561 38.2744 38.4883 37.8813 38.8814C37.4881 39.2746 36.9558 39.4968 36.3997 39.5H30.3997C30.0019 39.5 29.6205 39.6581 29.3391 39.9394C29.0578 40.2206 28.8997 40.6022 28.8997 41C28.8997 41.3978 29.0578 41.7794 29.3391 42.0606C29.6205 42.3419 30.0019 42.5 30.3997 42.5H36.3997C37.7514 42.4968 39.0468 41.9585 40.0026 41.0027C40.9582 40.0471 41.4966 38.7517 41.4997 37.4V8.696C41.4966 7.34437 40.9582 6.04901 40.0026 5.09326C39.0468 4.13752 37.7514 3.59916 36.3997 3.596Z" fill="#1D1C1D"/>
<path d="M21.832 36.344C21.547 36.0877 21.1745 35.9503 20.7914 35.9599C20.4082 35.9695 20.0432 36.1255 19.7715 36.3958C19.4996 36.6661 19.3415 37.0301 19.3298 37.4132C19.318 37.7963 19.4533 38.1695 19.708 38.456L20.752 39.5H7.6C7.04401 39.4969 6.5117 39.2746 6.11856 38.8814C5.7254 38.4883 5.50315 37.9559 5.5 37.4V8.69596C5.50315 8.13997 5.7254 7.60765 6.11856 7.21452C6.5117 6.82137 7.04401 6.59911 7.6 6.59596H13.6C13.9978 6.59596 14.3794 6.43792 14.6606 6.15661C14.9419 5.87532 15.1 5.49378 15.1 5.09595C15.1 4.69813 14.9419 4.31659 14.6606 4.0353C14.3794 3.75399 13.9978 3.59595 13.6 3.59595H7.6C6.24836 3.59913 4.95301 4.13746 3.99725 5.09322C3.0415 6.04896 2.50316 7.34433 2.5 8.69596V37.4C2.50316 38.7517 3.0415 40.0469 3.99725 41.0027C4.95301 41.9585 6.24836 42.4969 7.6 42.5H20.8L19.756 43.544C19.5487 43.753 19.4075 44.0183 19.3501 44.3069C19.2925 44.5957 19.3213 44.8948 19.4324 45.1673C19.5437 45.4397 19.7327 45.6736 19.9759 45.8393C20.219 46.0052 20.5057 46.0958 20.8 46.1C20.9969 46.1014 21.1921 46.0628 21.3736 45.9865C21.5552 45.9101 21.7193 45.7978 21.856 45.656L25.456 42.056C25.5956 41.9167 25.7065 41.7511 25.7821 41.5688C25.8577 41.3866 25.8967 41.1913 25.8967 40.994C25.8967 40.7966 25.8577 40.6013 25.7821 40.4191C25.7065 40.2368 25.5956 40.0714 25.456 39.932L21.832 36.344Z" fill="#1D1C1D"/>
<path d="M20.2841 13.0278C19.9099 12.9789 19.5311 13.0764 19.2271 13.3C18.923 13.5236 18.7169 13.856 18.6521 14.2278L18.2561 16.9998H14.7281C14.3462 16.9998 13.9799 17.1515 13.7099 17.4216C13.4398 17.6916 13.2881 18.0579 13.2881 18.4398C13.2881 18.8217 13.4398 19.188 13.7099 19.458C13.9799 19.728 14.3462 19.8798 14.7281 19.8798H17.8361L17.0801 24.9918H13.6001C13.4008 24.9735 13.1998 24.9971 13.01 25.0608C12.8203 25.1246 12.646 25.2272 12.4981 25.3622C12.3503 25.497 12.2321 25.6614 12.1513 25.8446C12.0705 26.0277 12.0288 26.2256 12.0288 26.4258C12.0288 26.6259 12.0705 26.8239 12.1513 27.0071C12.2321 27.1902 12.3503 27.3545 12.4981 27.4895C12.646 27.6243 12.8203 27.7271 13.01 27.7908C13.1998 27.8546 13.4008 27.8781 13.6001 27.8598H16.6241L16.1561 31.3998C16.1041 31.7745 16.2004 32.1548 16.4245 32.4596C16.6486 32.7644 16.9829 32.9697 17.3561 33.0318H17.5721C17.9117 33.0309 18.2401 32.91 18.4993 32.6904C18.7583 32.4708 18.9314 32.1666 18.9881 31.8318L19.6001 27.8598H23.3921L22.8401 31.3998C22.7881 31.7745 22.8844 32.1548 23.1085 32.4596C23.3326 32.7644 23.6669 32.9697 24.0401 33.0318H24.2561C24.5957 33.0309 24.9241 32.91 25.1833 32.6904C25.4423 32.4708 25.6154 32.1666 25.6721 31.8318L26.2481 27.9318H29.2601C29.6177 27.8991 29.9503 27.7338 30.1924 27.4685C30.4346 27.2031 30.5687 26.8569 30.5687 26.4978C30.5687 26.1386 30.4346 25.7924 30.1924 25.5272C29.9503 25.2618 29.6177 25.0965 29.2601 25.0638H26.6801L27.4241 19.9518H30.4001C30.7916 19.9518 31.1669 19.7963 31.4438 19.5195C31.7206 19.2426 31.8762 18.8673 31.8762 18.4758C31.8762 18.0843 31.7206 17.7089 31.4438 17.4321C31.1669 17.1554 30.7916 16.9998 30.4001 16.9998H27.8801L28.2281 14.6598C28.2802 14.2851 28.1839 13.9048 27.9598 13.6C27.7355 13.2952 27.4013 13.0899 27.0281 13.0278C26.6548 12.976 26.276 13.0727 25.973 13.297C25.6702 13.5214 25.4674 13.8556 25.4081 14.2278L24.9401 16.9998H21.1601L21.4961 14.6598C21.551 14.2827 21.4544 13.8993 21.2272 13.5935C21.0001 13.2876 20.6609 13.0842 20.2841 13.0278ZM24.5201 19.8798L23.7761 24.9918H19.9841L20.8001 19.8798H24.5201Z" fill="#1D1C1D"/>
</svg>
